<?xml version="1.0" encoding="utf-8"?>
<!-- Generator: Adobe Illustrator 26.2.1, SVG Export Plug-In . SVG Version: 6.00 Build 0)  -->
<svg version="1.1" id="Layer_1" xmlns="http://www.w3.org/2000/svg" xmlns:xlink="http://www.w3.org/1999/xlink" x="0px" y="0px"
	 viewBox="0 0 1000 1000" style="enable-background:new 0 0 1000 1000;" xml:space="preserve">
<style type="text/css">
	.st0{fill:#020202;}
</style>
<g>
	<path class="st0" d="M33.25,107.8c1.23-26.56,18.74-55.12,53.64-70.42c36.54-16.02,70.98-9.19,99.42,18.71
		c61.36,60.18,121.91,121.19,182.77,181.88c38.6,38.49,77.2,76.97,115.74,115.51c90.54,90.54,180.97,181.19,271.6,271.64
		c61.11,60.99,122.36,121.84,183.81,182.48c22.27,21.98,34.03,47.77,29.78,79.16c-4.86,35.88-24.8,61.19-58.85,73.16
		c-36.03,12.67-68.6,4.33-95.66-22.59c-61.51-61.2-122.64-122.78-184.04-184.1c-34.19-34.15-68.75-67.95-102.88-102.15
		c-22.71-22.76-44.71-46.23-67.5-68.9c-33.96-33.78-68.56-66.93-102.51-100.73c-98.37-97.93-196.51-196.1-294.85-294.05
		C44.78,168.53,32.73,146.86,33.25,107.8z"/>
	<path class="st0" d="M513.12,966.33c-19.89-0.33-41.25-8.74-58.82-26.25c-93.32-93.01-186.64-186.02-279.93-279.06
		c-39.18-39.08-78.41-78.1-117.37-117.4c-34.38-34.68-33.46-91.29,1.69-126.08c35.2-34.85,92.19-34.18,127.24,0.89
		c84.39,84.43,169.03,168.61,253.55,252.9c47.38,47.25,94.73,94.52,142.06,141.81c25.75,25.72,33.46,63.9,19.78,97.35
		C587.38,944.57,554.86,966.34,513.12,966.33z"/>
	<path class="st0" d="M811.08,314.35c14.91,14.96,27.97,28.09,41.07,41.18c31.28,31.23,62.57,62.45,93.88,93.64
		c35.03,34.9,35.2,91.96,0.35,127.32c-34.26,34.76-92.62,34.78-127.46,0.02c-63.18-63.02-126.26-126.14-189.59-189
		c-16.14-16.02-29.56-33.2-33.38-56.47c-4.9-29.86,2.62-56.38,23.64-77.54c67.23-67.7,134.78-135.11,203.08-201.73
		c34.37-33.53,88.81-30.16,124.8,5.62c31.54,31.36,32.7,87.76,1.07,120.45c-41.07,42.45-83.18,83.89-124.91,125.69
		C820.14,307.02,816.15,310,811.08,314.35z"/>
	<path class="st0" d="M248.09,884.9c-1.18,31.12-15.73,58.79-47.1,75.01c-34.74,17.96-69.39,15.38-99.7-9.76
		c-19.29-16-37.04-34.28-53.32-53.38c-30.31-35.57-26.12-88.56,7.92-121.19c33.09-31.72,86.65-33.21,120.81-2.42
		c17.16,15.46,33.38,32.04,49.17,48.92C241.19,838.45,247.83,858.68,248.09,884.9z"/>
</g>
<g>
	<path class="st0" d="M2138.34,409.15c0.28-6.15,4.34-12.77,12.43-16.31c8.46-3.71,16.44-2.13,23.03,4.33
		c14.21,13.94,28.24,28.07,42.34,42.13c8.94,8.91,17.88,17.83,26.81,26.76c20.97,20.97,41.92,41.97,62.91,62.92
		c14.16,14.13,28.34,28.22,42.58,42.27c5.16,5.09,7.88,11.07,6.9,18.34c-1.13,8.31-5.75,14.17-13.63,16.95
		c-8.34,2.93-15.89,1-22.16-5.23c-14.25-14.18-28.41-28.44-42.63-42.65c-7.92-7.91-15.92-15.74-23.83-23.66
		c-5.26-5.27-10.36-10.71-15.64-15.96c-7.87-7.83-15.88-15.5-23.75-23.33c-22.79-22.69-45.52-45.43-68.3-68.12
		C2141.01,423.22,2138.21,418.2,2138.34,409.15z"/>
	<path class="st0" d="M2249.5,608.02c-4.61-0.08-9.56-2.02-13.63-6.08c-21.62-21.55-43.23-43.09-64.84-64.64
		c-9.08-9.05-18.16-18.09-27.19-27.19c-7.96-8.03-7.75-21.15,0.39-29.2c8.15-8.07,21.35-7.92,29.47,0.21
		c19.55,19.56,39.16,39.06,58.73,58.58c10.97,10.95,21.94,21.9,32.91,32.85c5.96,5.96,7.75,14.8,4.58,22.55
		C2266.7,602.98,2259.16,608.03,2249.5,608.02z"/>
	<path class="st0" d="M2318.51,456.99c3.45,3.46,6.48,6.51,9.51,9.54c7.25,7.23,14.49,14.47,21.75,21.69
		c8.11,8.08,8.15,21.3,0.08,29.49c-7.94,8.05-21.46,8.06-29.53,0.01c-14.64-14.6-29.25-29.22-43.92-43.78
		c-3.74-3.71-6.85-7.69-7.73-13.08c-1.14-6.92,0.61-13.06,5.48-17.96c15.57-15.68,31.22-31.3,47.04-46.73
		c7.96-7.77,20.57-6.99,28.91,1.3c7.3,7.26,7.57,20.33,0.25,27.9c-9.51,9.83-19.27,19.43-28.94,29.12
		C2320.62,455.3,2319.69,455.99,2318.51,456.99z"/>
	<path class="st0" d="M2188.1,589.16c-0.27,7.21-3.64,13.62-10.91,17.38c-8.05,4.16-16.07,3.56-23.09-2.26
		c-4.47-3.71-8.58-7.94-12.35-12.37c-7.02-8.24-6.05-20.52,1.83-28.07c7.67-7.35,20.07-7.69,27.99-0.56
		c3.97,3.58,7.73,7.42,11.39,11.33C2186.5,578.4,2188.04,583.09,2188.1,589.16z"/>
</g>
<g>
	<path class="st0" d="M2493.42,547.37c-3.66,5.85-9.03,10.49-16.1,13.9c-7.07,3.42-15.55,5.12-25.42,5.12
		c-15,0-27.35-3.6-37.04-10.79c-9.69-7.19-14.97-17.44-15.82-30.73h38.23c0.37,4.51,1.77,7.87,4.21,10.06
		c2.44,2.2,5.42,3.29,8.96,3.29c3.17,0,5.64-0.79,7.41-2.38c1.77-1.58,2.65-3.84,2.65-6.77c0-3.9-1.77-6.92-5.3-9.05
		c-3.54-2.13-9.15-4.48-16.83-7.04c-8.17-2.8-14.91-5.55-20.21-8.23c-5.31-2.68-9.88-6.7-13.72-12.07
		c-3.84-5.36-5.76-12.25-5.76-20.67c0-8.05,2.07-14.97,6.22-20.76c4.14-5.79,9.81-10.18,17.01-13.17
		c7.19-2.99,15.36-4.48,24.51-4.48c14.88,0,26.73,3.51,35.58,10.52c8.84,7.01,13.69,16.86,14.54,29.54h-38.59
		c-0.49-4.02-1.74-7.01-3.75-8.96c-2.01-1.95-4.66-2.93-7.96-2.93c-2.81,0-5,0.73-6.58,2.19c-1.59,1.46-2.38,3.66-2.38,6.58
		c0,3.66,1.74,6.53,5.21,8.6c3.48,2.08,8.93,4.39,16.37,6.95c8.17,2.93,14.94,5.79,20.3,8.6c5.36,2.81,10,6.89,13.9,12.25
		c3.9,5.37,5.85,12.32,5.85,20.85C2498.91,535,2497.08,541.52,2493.42,547.37z"/>
	<path class="st0" d="M2624.39,435.61v28.72h-34.94v100.78h-35.85V464.33h-34.57v-28.72H2624.39z"/>
	<path class="st0" d="M2684.56,464.33v21.4h41.89v27.25h-41.89v23.41h47.37v28.72h-83.41v-129.5h83.41v28.72H2684.56z"/>
	<path class="st0" d="M2851.74,547.37c-3.66,5.85-9.03,10.49-16.1,13.9c-7.07,3.42-15.55,5.12-25.42,5.12
		c-15,0-27.35-3.6-37.04-10.79c-9.69-7.19-14.97-17.44-15.82-30.73h38.23c0.37,4.51,1.77,7.87,4.21,10.06
		c2.44,2.2,5.42,3.29,8.96,3.29c3.17,0,5.64-0.79,7.41-2.38c1.77-1.58,2.65-3.84,2.65-6.77c0-3.9-1.77-6.92-5.3-9.05
		c-3.54-2.13-9.15-4.48-16.83-7.04c-8.17-2.8-14.91-5.55-20.21-8.23c-5.31-2.68-9.88-6.7-13.72-12.07
		c-3.84-5.36-5.76-12.25-5.76-20.67c0-8.05,2.07-14.97,6.22-20.76c4.14-5.79,9.81-10.18,17.01-13.17
		c7.19-2.99,15.36-4.48,24.51-4.48c14.88,0,26.73,3.51,35.58,10.52c8.84,7.01,13.69,16.86,14.54,29.54h-38.59
		c-0.49-4.02-1.74-7.01-3.75-8.96c-2.01-1.95-4.66-2.93-7.96-2.93c-2.81,0-5,0.73-6.58,2.19c-1.59,1.46-2.38,3.66-2.38,6.58
		c0,3.66,1.74,6.53,5.21,8.6c3.48,2.08,8.93,4.39,16.37,6.95c8.17,2.93,14.94,5.79,20.3,8.6c5.36,2.81,10,6.89,13.9,12.25
		c3.9,5.37,5.85,12.32,5.85,20.85C2857.23,535,2855.4,541.52,2851.74,547.37z"/>
	<path class="st0" d="M2976.31,547.37c-3.66,5.85-9.03,10.49-16.1,13.9c-7.07,3.42-15.55,5.12-25.42,5.12
		c-15,0-27.35-3.6-37.04-10.79c-9.69-7.19-14.97-17.44-15.82-30.73h38.23c0.37,4.51,1.77,7.87,4.21,10.06
		c2.44,2.2,5.42,3.29,8.96,3.29c3.17,0,5.64-0.79,7.41-2.38c1.77-1.58,2.65-3.84,2.65-6.77c0-3.9-1.77-6.92-5.3-9.05
		c-3.54-2.13-9.15-4.48-16.83-7.04c-8.17-2.8-14.91-5.55-20.21-8.23c-5.31-2.68-9.88-6.7-13.72-12.07
		c-3.84-5.36-5.76-12.25-5.76-20.67c0-8.05,2.07-14.97,6.22-20.76c4.14-5.79,9.81-10.18,17.01-13.17
		c7.19-2.99,15.36-4.48,24.51-4.48c14.88,0,26.73,3.51,35.58,10.52c8.84,7.01,13.69,16.86,14.54,29.54h-38.59
		c-0.49-4.02-1.74-7.01-3.75-8.96c-2.01-1.95-4.66-2.93-7.96-2.93c-2.81,0-5,0.73-6.58,2.19c-1.59,1.46-2.38,3.66-2.38,6.58
		c0,3.66,1.74,6.53,5.21,8.6c3.48,2.08,8.93,4.39,16.37,6.95c8.17,2.93,14.94,5.79,20.3,8.6c5.36,2.81,10,6.89,13.9,12.25
		c3.9,5.37,5.85,12.32,5.85,20.85C2981.79,535,2979.97,541.52,2976.31,547.37z"/>
	<path class="st0" d="M3045.81,464.33v21.4h41.89v27.25h-41.89v23.41h47.37v28.72h-83.41v-129.5h83.41v28.72H3045.81z"/>
</g>
<g>
	<g>
		<path class="st0" d="M1124.77,80.94c1.04-22.49,15.87-46.67,45.42-59.63c30.94-13.57,60.1-7.78,84.19,15.84
			c51.96,50.96,103.23,102.62,154.76,154.01c32.68,32.59,65.37,65.17,98,97.81c76.67,76.67,153.24,153.43,229.98,230.02
			c51.75,51.64,103.62,103.17,155.65,154.52c18.86,18.61,28.82,40.45,25.22,67.03c-4.12,30.38-21,51.81-49.83,61.95
			c-30.51,10.73-58.09,3.67-81-19.13c-52.09-51.82-103.85-103.97-155.84-155.89c-28.96-28.92-58.21-57.53-87.12-86.5
			c-19.23-19.27-37.86-39.14-57.16-58.34c-28.76-28.61-58.06-56.67-86.81-85.29c-83.3-82.92-166.4-166.05-249.67-249
			C1134.53,132.37,1124.33,114.02,1124.77,80.94z"/>
		<path class="st0" d="M1531.11,807.93c-16.84-0.28-34.93-7.4-49.81-22.23c-79.02-78.76-158.04-157.52-237.04-236.3
			c-33.18-33.09-66.4-66.13-99.38-99.41c-29.11-29.36-28.33-77.3,1.43-106.76c29.81-29.51,78.06-28.94,107.74,0.75
			c71.46,71.5,143.13,142.77,214.7,214.15c40.12,40.01,80.21,80.04,120.29,120.08c21.8,21.78,28.33,54.11,16.75,82.43
			C1593.99,789.5,1566.45,807.93,1531.11,807.93z"/>
		<path class="st0" d="M1783.41,255.84c12.63,12.66,23.68,23.79,34.78,34.87c26.49,26.44,52.98,52.88,79.5,79.29
			c29.66,29.55,29.81,77.87,0.29,107.81c-29.01,29.43-78.43,29.45-107.93,0.02c-53.5-53.36-106.91-106.81-160.54-160.04
			c-13.66-13.56-25.03-28.11-28.26-47.81c-4.15-25.28,2.22-47.74,20.02-65.66c56.93-57.33,114.13-114.41,171.96-170.82
			c29.11-28.39,75.2-25.54,105.67,4.76c26.7,26.55,27.69,74.31,0.91,101.99c-34.78,35.94-70.44,71.03-105.77,106.43
			C1791.09,249.64,1787.71,252.16,1783.41,255.84z"/>
		<path class="st0" d="M1306.69,738.97c-1,26.35-13.32,49.78-39.89,63.52c-29.42,15.2-58.76,13.02-84.42-8.26
			c-16.33-13.55-31.37-29.03-45.15-45.2c-25.67-30.12-22.12-74.99,6.7-102.62c28.02-26.86,73.37-28.12,102.3-2.05
			c14.53,13.09,28.26,27.13,41.63,41.42C1300.84,699.64,1306.47,716.77,1306.69,738.97z"/>
	</g>
	<g>
		<path class="st0" d="M1233.88,964.8c-4.12,6.59-10.17,11.81-18.13,15.66c-7.97,3.85-17.51,5.77-28.63,5.77
			c-16.89,0-30.8-4.05-41.71-12.15c-10.92-8.1-16.86-19.64-17.82-34.61h43.05c0.41,5.08,1.99,8.86,4.74,11.33
			c2.75,2.47,6.11,3.71,10.09,3.71c3.57,0,6.35-0.89,8.34-2.68c1.99-1.78,2.99-4.33,2.99-7.62c0-4.39-1.99-7.79-5.97-10.2
			c-3.99-2.4-10.3-5.05-18.95-7.93c-9.2-3.16-16.79-6.25-22.76-9.27c-5.97-3.02-11.12-7.55-15.45-13.6
			c-4.33-6.04-6.49-13.8-6.49-23.28c0-9.06,2.33-16.86,7-23.38c4.67-6.52,11.05-11.46,19.16-14.83c8.1-3.36,17.3-5.05,27.6-5.05
			c16.75,0,30.11,3.95,40.07,11.85c9.96,7.9,15.42,18.99,16.38,33.27h-43.47c-0.55-4.53-1.96-7.9-4.22-10.09
			c-2.27-2.2-5.25-3.3-8.96-3.3c-3.16,0-5.63,0.82-7.42,2.47c-1.79,1.65-2.68,4.12-2.68,7.42c0,4.12,1.96,7.35,5.87,9.68
			c3.91,2.34,10.06,4.94,18.44,7.83c9.2,3.3,16.82,6.52,22.87,9.68c6.04,3.16,11.26,7.76,15.66,13.8
			c4.39,6.04,6.59,13.87,6.59,23.48C1240.06,950.86,1238,958.21,1233.88,964.8z"/>
		<path class="st0" d="M1381.38,838.93v32.34h-39.35v113.51h-40.38V871.27h-38.93v-32.34H1381.38z"/>
		<path class="st0" d="M1449.15,871.27v24.1h47.17v30.69h-47.17v26.37h53.35v32.34h-93.94V838.93h93.94v32.34H1449.15z"/>
		<path class="st0" d="M1637.43,964.8c-4.12,6.59-10.17,11.81-18.13,15.66c-7.97,3.85-17.51,5.77-28.63,5.77
			c-16.89,0-30.8-4.05-41.71-12.15c-10.92-8.1-16.86-19.64-17.82-34.61h43.05c0.41,5.08,1.99,8.86,4.74,11.33
			c2.75,2.47,6.11,3.71,10.09,3.71c3.57,0,6.35-0.89,8.34-2.68c1.99-1.78,2.99-4.33,2.99-7.62c0-4.39-1.99-7.79-5.97-10.2
			c-3.99-2.4-10.3-5.05-18.95-7.93c-9.2-3.16-16.79-6.25-22.76-9.27c-5.97-3.02-11.12-7.55-15.45-13.6
			c-4.33-6.04-6.49-13.8-6.49-23.28c0-9.06,2.33-16.86,7-23.38c4.67-6.52,11.05-11.46,19.16-14.83c8.1-3.36,17.3-5.05,27.6-5.05
			c16.75,0,30.11,3.95,40.07,11.85c9.96,7.9,15.42,18.99,16.38,33.27h-43.47c-0.55-4.53-1.96-7.9-4.22-10.09
			c-2.27-2.2-5.25-3.3-8.96-3.3c-3.16,0-5.63,0.82-7.42,2.47c-1.79,1.65-2.68,4.12-2.68,7.42c0,4.12,1.96,7.35,5.87,9.68
			c3.91,2.34,10.06,4.94,18.44,7.83c9.2,3.3,16.82,6.52,22.87,9.68c6.04,3.16,11.26,7.76,15.66,13.8
			c4.39,6.04,6.59,13.87,6.59,23.48C1643.61,950.86,1641.55,958.21,1637.43,964.8z"/>
		<path class="st0" d="M1777.72,964.8c-4.12,6.59-10.17,11.81-18.13,15.66c-7.97,3.85-17.51,5.77-28.63,5.77
			c-16.89,0-30.8-4.05-41.71-12.15c-10.92-8.1-16.86-19.64-17.82-34.61h43.05c0.41,5.08,1.99,8.86,4.74,11.33
			c2.75,2.47,6.11,3.71,10.09,3.71c3.57,0,6.35-0.89,8.34-2.68c1.99-1.78,2.99-4.33,2.99-7.62c0-4.39-1.99-7.79-5.97-10.2
			c-3.99-2.4-10.3-5.05-18.95-7.93c-9.2-3.16-16.79-6.25-22.76-9.27c-5.97-3.02-11.12-7.55-15.45-13.6
			c-4.33-6.04-6.49-13.8-6.49-23.28c0-9.06,2.33-16.86,7-23.38c4.67-6.52,11.05-11.46,19.16-14.83c8.1-3.36,17.3-5.05,27.6-5.05
			c16.75,0,30.11,3.95,40.07,11.85c9.96,7.9,15.42,18.99,16.38,33.27h-43.47c-0.55-4.53-1.96-7.9-4.22-10.09
			c-2.27-2.2-5.25-3.3-8.96-3.3c-3.16,0-5.63,0.82-7.42,2.47c-1.79,1.65-2.68,4.12-2.68,7.42c0,4.12,1.96,7.35,5.87,9.68
			c3.91,2.34,10.06,4.94,18.44,7.83c9.2,3.3,16.82,6.52,22.87,9.68c6.04,3.16,11.26,7.76,15.66,13.8
			c4.39,6.04,6.59,13.87,6.59,23.48C1783.9,950.86,1781.84,958.21,1777.72,964.8z"/>
		<path class="st0" d="M1856,871.27v24.1h47.17v30.69H1856v26.37h53.35v32.34h-93.94V838.93h93.94v32.34H1856z"/>
	</g>
</g>
</svg>
